<svg version="1.1" xmlns="http://www.w3.org/2000/svg" xmlns:xlink="http://www.w3.org/1999/xlink" width="16" height="16" viewBox="0,0,256,256"><g fill="#ffffff" fill-rule="nonzero" stroke="none" stroke-width="1" stroke-linecap="butt" stroke-linejoin="miter" stroke-miterlimit="10" stroke-dasharray="" stroke-dashoffset="0" font-family="none" font-weight="none" font-size="none" text-anchor="none" style="mix-blend-mode: normal"><g transform="scale(0.5,0.5)"><path d="M256,0c17.7,0 32,14.3 32,32v34.7c80.4,13.4 143.9,76.9 157.3,157.3h34.7c17.7,0 32,14.3 32,32c0,17.7 -14.3,32 -32,32h-34.7c-13.4,80.4 -76.9,143.9 -157.3,157.3v34.7c0,17.7 -14.3,32 -32,32c-17.7,0 -32,-14.3 -32,-32v-34.7c-80.4,-13.4 -143.9,-76.9 -157.3,-157.3h-34.7c-17.7,0 -32,-14.3 -32,-32c0,-17.7 14.3,-32 32,-32h34.7c13.4,-80.4 76.9,-143.9 157.3,-157.3v-34.7c0,-17.7 14.3,-32 32,-32zM128,256c0,70.69245 57.30755,128 128,128c70.69245,0 128,-57.30755 128,-128c0,-70.69245 -57.30755,-128 -128,-128c-70.69245,0 -128,57.30755 -128,128zM256,176c44.18278,0 80,35.81722 80,80c0,44.18278 -35.81722,80 -80,80c-44.18278,0 -80,-35.81722 -80,-80c0,-44.18278 35.81722,-80 80,-80z"></path></g></g></svg>